# xmcd
#
# Track frame offsets:
#	150
#	16537
#	34730
#	52152
#	68947
#	87587
#	102792
#	121317
#	139945
#	158865
#	179447
#	205715
#	218515
#	237605
#	255875
#	274162
#	291825
#
# Disc length: 4140 seconds
#
# Revision: 1
# Processed by: cddbd v1.4PL0 Copyright (c) Steve Scherf et al.
# Submitted via: audiograbber 1.80
#
DISCID=f4102a11
DTITLE=Various Artist - The Complete Blue Note Recordings of Albert Ammons and Meade L
DTITLE=ux Lewis [CDI)
DYEAR=1900
DGENRE=
TTITLE0=Albert Ammons - Boogie Woogie Stomp
TTITLE1=Albert Ammons - Chicago in Mind
TTITLE2=Albert Ammons - Suitcase Blues
TTITLE3=Albert Ammons - Boogie Woogie Blues
TTITLE4=Albert Ammons - Untitled Ammons Original
TTITLE5=Albert Ammons - Bass Goin' Crazy
TTITLE6=Albert Ammons - Backwater Blues
TTITLE7=Albert Ammons - Changes in Boogie Woogie
TTITLE8=Albert Ammons - Easy Rider Blues
TTITLE9=Albert Ammons and Meade Lux Lewis - Twos and Fews
TTITLE10=Albert Ammons and Meade Lux Lewis - The Sheik of Araby
TTITLE11=Meade Lux Lewis - Honky Tonk Train Blues
TTITLE12=Meade Lux Lewis - The Blues:  Part One
TTITLE13=Meade Lux Lewis - The Blues:  Part Two
TTITLE14=Meade Lux Lewis - The Blues:  Part Three
TTITLE15=Meade Lux Lewis - The Blues:  Part Four
TTITLE16=Meade Lux Lewis - The Blues:  Part Five
EXTD=Boogie woogie pianists.
EXTT0=
EXTT1=
EXTT2=
EXTT3=
EXTT4=
EXTT5=
EXTT6=
EXTT7=
EXTT8=
EXTT9=
EXTT10=
EXTT11=
EXTT12=
EXTT13=
EXTT14=
EXTT15=
EXTT16=
PLAYORDER=
